<svg width="535" height="511" viewBox="0 0 535 511" fill="none" xmlns="http://www.w3.org/2000/svg">
<path fill-rule="evenodd" clip-rule="evenodd" d="M323.078 81.0323C356.87 80.2521 387.64 93.7174 418.797 107.737C460.022 126.288 520.851 129.654 533.279 175.619C545.813 221.982 486.307 254.722 470.787 300.039C456.221 342.569 476.73 398.608 446.173 429.958C415.408 461.522 365.503 455.989 323.078 451.582C283.957 447.519 252.388 422.492 216.204 406.072C165.87 383.229 99.9702 385.566 69.921 336.696C38.6504 285.84 29.5273 207.024 64.0702 158.652C99.719 108.731 173.772 129.034 230.315 112.089C262.296 102.505 289.873 81.799 323.078 81.0323Z" fill="#C5D3FF"/>
<path fill-rule="evenodd" clip-rule="evenodd" d="M471.668 451.584C478.018 450.456 485.452 448.622 490.512 451.68C495.709 454.82 496.964 456.868 495.328 461.686C493.937 465.782 485.207 468.512 480.634 471.035C477.079 472.996 473.497 475.639 469.09 475.988C464.139 476.381 461.821 478.054 457.695 475.988C452.47 473.373 445.441 470.289 446.035 465.638C446.631 460.984 455.041 459.861 460.113 457.079C463.938 454.982 467.041 452.406 471.668 451.584Z" fill="#C5D3FF"/>
<path fill-rule="evenodd" clip-rule="evenodd" d="M7.25392 89.094C6.12854 81.0021 8.74868 72.8925 13.7401 66.4877C18.0934 60.9016 25.3133 59.7389 31.9662 57.3835C39.5914 54.6839 47.1021 49.0834 54.6777 51.9944C62.9162 55.1601 67.8641 63.6623 70.4338 72.165C73.0935 80.9654 74.6098 91.5957 68.7683 98.6174C63.2268 105.279 52.6387 101.168 44.3334 103.539C35.7372 105.992 28.4971 115.753 20.139 112.497C11.5626 109.156 8.5297 98.2671 7.25392 89.094Z" fill="#C5D3FF"/>
<path fill-rule="evenodd" clip-rule="evenodd" d="M383.603 479.936C398.843 478.557 416.685 476.316 428.829 480.053C441.301 483.891 444.313 486.394 440.387 492.283C437.048 497.289 416.098 500.626 405.123 503.709C396.59 506.106 387.993 509.336 377.415 509.764C365.533 510.244 359.97 512.288 350.069 509.764C337.529 506.567 318.073 495.184 319.5 489.5C320.928 483.812 343.698 490.052 355.872 486.653C365.051 484.09 372.498 480.941 383.603 479.936Z" fill="#C5D3FF"/>
<path fill-rule="evenodd" clip-rule="evenodd" d="M478 0.140462C487.999 1.39595 491.802 13.3167 498.635 20.7759C504.962 27.6839 516.958 32.2159 515.939 41.5586C514.916 50.9409 500.988 51.3686 494.55 58.2277C487.692 65.5349 487.964 81.3454 478 81.9806C468.166 82.6075 465.758 67.8996 459.213 60.4803C453.402 53.8923 443.813 50.2459 442.342 41.5586C440.708 31.9098 445.121 22.2512 451.488 14.856C458.36 6.87385 467.591 -1.16655 478 0.140462Z" fill="#C5D3FF"/>
</svg>
