<svg width="51" height="57" viewBox="0 0 51 57" fill="none" xmlns="http://www.w3.org/2000/svg">
<path fill-rule="evenodd" clip-rule="evenodd" d="M20.153 41.668C18.5629 41.668 17.2739 40.3465 17.2739 38.7165L17.2739 29.8621C17.2739 28.232 18.5629 26.9106 20.153 26.9106C21.743 26.9106 23.032 28.232 23.032 29.8621L23.032 38.7165C23.032 40.3465 21.743 41.668 20.153 41.668Z" fill="#686A54"/>
<path fill-rule="evenodd" clip-rule="evenodd" d="M30.8466 41.668C29.2565 41.668 27.9675 40.3465 27.9675 38.7165L27.9675 29.8621C27.9675 28.232 29.2565 26.9106 30.8466 26.9106C32.4366 26.9106 33.7256 28.232 33.7256 29.8621L33.7256 38.7165C33.7256 40.3465 32.4366 41.668 30.8466 41.668Z" fill="#686A54"/>
<path fill-rule="evenodd" clip-rule="evenodd" d="M2.90768 17.3541C2.23624 17.3055 1.35893 17.3039 0 17.3039V11.2852C0.0303062 11.2852 0.0605124 11.2852 0.0906187 11.2852C0.151457 11.2852 0.211887 11.2852 0.271906 11.2852H50.7281C50.7881 11.2852 50.8485 11.2852 50.9094 11.2852L51 11.2852V17.3039C49.6411 17.3039 48.7638 17.3055 48.0923 17.3541C47.4463 17.401 47.2003 17.4811 47.0824 17.5329C46.3881 17.8384 45.8366 18.4242 45.549 19.1616C45.5002 19.2868 45.4248 19.5481 45.3807 20.2342C45.3349 20.9474 45.3333 21.8792 45.3333 23.3226L45.3333 41.5767C45.3335 44.2445 45.3336 46.5431 45.1006 48.3838C44.8509 50.3565 44.2878 52.2474 42.8437 53.7812C41.3997 55.3149 39.6194 55.913 37.7621 56.1782C36.029 56.4257 33.8649 56.4256 31.3532 56.4254H19.6468C17.1351 56.4256 14.971 56.4257 13.2379 56.1782C11.3806 55.913 9.6003 55.3149 8.15626 53.7812C6.71222 52.2474 6.1491 50.3565 5.8994 48.3838C5.6664 46.5431 5.66652 44.2445 5.66666 41.5768L5.66667 23.3226C5.66667 21.8792 5.66513 20.9474 5.61932 20.2342C5.57524 19.5481 5.49983 19.2868 5.45099 19.1616C5.16343 18.4242 4.61185 17.8384 3.9176 17.5329C3.7997 17.4811 3.55367 17.401 2.90768 17.3541ZM40.1563 17.3039H10.8437C11.1095 18.1393 11.2187 18.982 11.2728 19.8245C11.3334 20.7672 11.3334 21.9062 11.3333 23.2263L11.3333 41.3787C11.3333 44.301 11.3394 46.19 11.5155 47.5818C11.6808 48.8871 11.9475 49.2962 12.1632 49.5253C12.3789 49.7544 12.7641 50.0377 13.993 50.2132C15.3034 50.4003 17.0819 50.4067 19.8333 50.4067H31.1667C33.9181 50.4067 35.6966 50.4003 37.007 50.2132C38.2359 50.0377 38.6211 49.7544 38.8368 49.5253C39.0525 49.2962 39.3192 48.8871 39.4845 47.5818C39.6606 46.19 39.6667 44.301 39.6667 41.3787V23.2263C39.6666 21.9062 39.6666 20.7672 39.7272 19.8245C39.7813 18.982 39.8905 18.1393 40.1563 17.3039Z" fill="#686A54"/>
<path fill-rule="evenodd" clip-rule="evenodd" d="M29.4446 0.355144C28.2551 0.116889 26.8727 0 25.5 0C24.1274 1.74612e-07 22.745 0.116889 21.5555 0.355144C20.9608 0.474253 20.3786 0.630683 19.8512 0.836738C19.3721 1.0239 18.7187 1.33462 18.1659 1.87318C17.0329 2.97691 16.9714 4.83065 18.0285 6.01363C19.026 7.12993 20.6631 7.25005 21.7964 6.33263C21.8029 6.33 21.8099 6.32719 21.8176 6.32422C21.9673 6.26573 22.2273 6.18641 22.6126 6.10923C23.3831 5.9549 24.4022 5.859 25.5 5.859C26.5979 5.859 27.6169 5.9549 28.3874 6.10923C28.7727 6.18641 29.0328 6.26573 29.1825 6.32422C29.1901 6.32719 29.1971 6.33 29.2036 6.33263C30.337 7.25005 31.9741 7.12993 32.9716 6.01363C34.0287 4.83065 33.9671 2.97691 32.8342 1.87317C32.2813 1.33462 31.6279 1.0239 31.1489 0.836737C30.6214 0.630682 30.0392 0.474252 29.4446 0.355144Z" fill="#686A54"/>
</svg>
