<svg width="34" height="38" viewBox="0 0 34 38" fill="none" xmlns="http://www.w3.org/2000/svg">
<path fill-rule="evenodd" clip-rule="evenodd" d="M13.4355 27.7788C12.3754 27.7788 11.5161 26.8979 11.5161 25.8112L11.5161 19.9082C11.5161 18.8215 12.3754 17.9405 13.4355 17.9405C14.4955 17.9405 15.3548 18.8215 15.3548 19.9082L15.3548 25.8112C15.3548 26.8979 14.4955 27.7788 13.4355 27.7788Z" fill="#0D0E34"/>
<path fill-rule="evenodd" clip-rule="evenodd" d="M20.5644 27.7788C19.5043 27.7788 18.645 26.8979 18.645 25.8112L18.645 19.9082C18.645 18.8215 19.5043 17.9405 20.5644 17.9405C21.6244 17.9405 22.4837 18.8215 22.4837 19.9082L22.4837 25.8112C22.4837 26.8979 21.6244 27.7788 20.5644 27.7788Z" fill="#0D0E34"/>
<path fill-rule="evenodd" clip-rule="evenodd" d="M1.93845 11.5694C1.49082 11.537 0.905956 11.5359 0 11.5359V7.52344C0.0202041 7.52344 0.0403416 7.52344 0.0604125 7.52344C0.100971 7.52344 0.141258 7.52344 0.181271 7.52344H33.8187C33.8587 7.52344 33.899 7.52344 33.9396 7.52344L34 7.52344V11.5359C33.094 11.5359 32.5092 11.537 32.0615 11.5694C31.6309 11.6006 31.4669 11.654 31.3883 11.6886C30.9254 11.8922 30.5577 12.2828 30.366 12.7744C30.3334 12.8579 30.2832 13.0321 30.2538 13.4895C30.2232 13.9649 30.2222 14.5861 30.2222 15.5484L30.2222 27.7178C30.2223 29.4963 30.2224 31.0287 30.0671 32.2559C29.9006 33.571 29.5252 34.8316 28.5625 35.8541C27.5998 36.8766 26.4129 37.2753 25.1747 37.4522C24.0194 37.6171 22.5766 37.6171 20.9021 37.6169H13.0979C11.4234 37.6171 9.98064 37.6171 8.82528 37.4522C7.58708 37.2753 6.4002 36.8766 5.43751 35.8541C4.47481 34.8316 4.0994 33.571 3.93293 32.2559C3.7776 31.0287 3.77768 29.4963 3.77777 27.7178L3.77778 15.5484C3.77778 14.5861 3.77675 13.9649 3.74621 13.4895C3.71683 13.0321 3.66655 12.8579 3.63399 12.7744C3.44228 12.2828 3.07457 11.8922 2.61174 11.6886C2.53313 11.654 2.36912 11.6006 1.93845 11.5694ZM26.7708 11.5359H7.22915C7.40632 12.0929 7.47915 12.6547 7.51523 13.2164C7.5556 13.8448 7.55558 14.6042 7.55556 15.4842L7.55556 27.5858C7.55556 29.534 7.55957 30.7933 7.67702 31.7212C7.78717 32.5914 7.96501 32.8641 8.1088 33.0169C8.25259 33.1696 8.50938 33.3585 9.32866 33.4755C10.2023 33.6002 11.388 33.6045 13.2222 33.6045H20.7778C22.612 33.6045 23.7977 33.6002 24.6713 33.4755C25.4906 33.3585 25.7474 33.1696 25.8912 33.0169C26.035 32.8641 26.2128 32.5914 26.323 31.7212C26.4404 30.7933 26.4444 29.534 26.4444 27.5858V15.4842C26.4444 14.6042 26.4444 13.8448 26.4848 13.2164C26.5209 12.6547 26.5937 12.0929 26.7708 11.5359Z" fill="#0D0E34"/>
<path fill-rule="evenodd" clip-rule="evenodd" d="M19.6297 0.236763C18.8367 0.0779258 17.9151 0 17 0C16.0849 1.16408e-07 15.1633 0.077926 14.3703 0.236763C13.9739 0.316168 13.5858 0.420455 13.2341 0.557825C12.9147 0.682599 12.4791 0.889749 12.1106 1.24878C11.3553 1.98461 11.3143 3.22044 12.019 4.00909C12.684 4.75328 13.7754 4.83337 14.531 4.22175C14.5353 4.22 14.54 4.21813 14.545 4.21615C14.6448 4.17715 14.8182 4.12427 15.0751 4.07282C15.5887 3.96994 16.2681 3.906 17 3.906C17.7319 3.906 18.4113 3.96994 18.9249 4.07282C19.1818 4.12427 19.3552 4.17715 19.455 4.21615C19.4601 4.21813 19.4648 4.22 19.4691 4.22175C20.2247 4.83337 21.3161 4.75328 21.9811 4.00909C22.6858 3.22043 22.6448 1.9846 21.8894 1.24878C21.5209 0.889747 21.0853 0.682598 20.7659 0.557825C20.4143 0.420455 20.0261 0.316168 19.6297 0.236763Z" fill="#0D0E34"/>
</svg>
