<svg width="50" height="53" viewBox="0 0 50 53" fill="none" xmlns="http://www.w3.org/2000/svg">
<path fill-rule="evenodd" clip-rule="evenodd" d="M7.16528 18.8213L11.5847 14.1575L21.875 25.017L21.875 3.29795C21.875 1.47659 23.2741 9.19629e-05 25 9.20425e-05C26.7259 9.21221e-05 28.125 1.47659 28.125 3.29795L28.125 25.017L38.4153 14.1575L42.8347 18.8213L25 37.6426L7.16528 18.8213Z" fill="#686A54"/>
<path fill-rule="evenodd" clip-rule="evenodd" d="M6.25 39.5742V42.8721C6.25 44.6934 7.64911 46.1699 9.375 46.1699L40.625 46.1699C42.3509 46.1699 43.75 44.6934 43.75 42.8721V39.5742H50V42.8721C50 48.3362 45.8027 52.7657 40.625 52.7657L9.375 52.7657C4.19733 52.7657 0 48.3362 0 42.8721V39.5742H6.25Z" fill="#686A54"/>
</svg>
