<svg width="29" height="30" viewBox="0 0 29 30" fill="none" xmlns="http://www.w3.org/2000/svg">
<path fill-rule="evenodd" clip-rule="evenodd" d="M4.04199 10.6171L6.53504 7.98616L12.3399 14.1121L12.3399 1.86019C12.3399 0.832741 13.1292 -0.000169335 14.1027 -0.00016929C15.0763 -0.000169245 15.8656 0.832741 15.8656 1.86019L15.8656 14.1121L21.6705 7.98616L24.1635 10.6171L14.1027 21.2344L4.04199 10.6171Z" fill="#0D0E34"/>
<path fill-rule="evenodd" clip-rule="evenodd" d="M3.52569 22.3242V24.1846C3.52569 25.212 4.31495 26.0449 5.28854 26.0449L22.917 26.0449C23.8906 26.0449 24.6799 25.212 24.6799 24.1846V22.3242H28.2056V24.1846C28.2056 27.2669 25.8378 29.7657 22.917 29.7657L5.28854 29.7657C2.36776 29.7657 0 27.2669 0 24.1846V22.3242H3.52569Z" fill="#0D0E34"/>
</svg>
