<svg width="94" height="57" viewBox="0 0 94 57" fill="none" xmlns="http://www.w3.org/2000/svg">
<path fill-rule="evenodd" clip-rule="evenodd" d="M4.60372 29.8389C4.60321 29.839 4.60702 29.8315 4.61671 29.8162C4.60909 29.8311 4.60424 29.8387 4.60372 29.8389ZM4.71339 29.683C4.72853 29.6637 4.74552 29.6426 4.7645 29.6196C4.98925 29.3474 5.36948 28.9621 5.93549 28.4639C7.05827 27.4755 8.69875 26.2281 10.7334 24.8054C14.7885 21.9698 20.2179 18.5704 25.7328 15.3635C31.2491 12.1558 36.7961 9.17268 41.0826 7.15835C43.2377 6.14558 45.0052 5.41066 46.2626 5.00771C46.5314 4.92158 46.758 4.85687 46.9456 4.80923C47.2172 5.24623 47.5372 5.84551 47.8784 6.60599C48.4389 7.85537 48.9796 9.36521 49.4023 10.9189C49.8266 12.4785 50.1146 14.0185 50.2023 15.3362C50.2948 16.7262 50.1423 17.5715 49.9616 17.9531C49.9613 17.9537 49.9579 17.9606 49.9502 17.9742C49.9417 17.989 49.9291 18.0098 49.9114 18.0369C49.8753 18.092 49.8232 18.1645 49.751 18.2548C49.6045 18.4377 49.4002 18.6624 49.1303 18.927C48.5885 19.458 47.8567 20.0774 46.9671 20.7563C45.1911 22.1114 42.9152 23.6056 40.5774 24.9772C38.2379 26.3499 35.8955 27.5653 33.9944 28.3804C33.0391 28.7901 32.2478 29.0758 31.6535 29.2354C31.3929 29.3053 31.2201 29.3369 31.1189 29.3521C31.0691 29.3173 31.0015 29.2666 30.9155 29.1939C30.6449 28.9654 30.3125 28.6234 29.916 28.1575C29.2616 27.3887 28.5818 26.4643 27.8435 25.4603C27.6722 25.2274 27.4978 24.9902 27.3198 24.7497C26.4322 23.5503 25.4237 22.2226 24.4259 21.2765C23.9292 20.8056 23.302 20.2979 22.5673 19.9781C21.7882 19.6389 20.7127 19.4467 19.6086 19.9563C18.4408 20.4952 17.9158 21.5389 17.6733 22.2666C17.4216 23.0215 17.3283 23.8581 17.2939 24.6222C17.2247 26.1589 17.3762 28.0421 17.5197 29.7637C17.5271 29.8528 17.5345 29.9416 17.5419 30.0301C17.6842 31.7331 17.8156 33.3074 17.805 34.6107C17.7995 35.2918 17.7544 35.802 17.6824 36.1564C17.6561 36.2857 17.6313 36.3685 17.6151 36.4157C17.3644 36.6389 16.7426 37.0412 15.6397 37.5288C14.4983 38.0333 13.101 38.5188 11.6811 38.9262C10.2623 39.3332 8.87813 39.6459 7.77446 39.8206C7.28916 39.8974 6.88719 39.9428 6.57755 39.9617C6.52394 39.8583 6.46343 39.7321 6.39744 39.5802C6.0705 38.828 5.73643 37.7473 5.44867 36.4812C4.90149 34.0737 4.6132 31.4118 4.71339 29.683ZM6.80509 40.3274C6.80498 40.3282 6.79775 40.3207 6.78371 40.3027C6.79819 40.3176 6.8052 40.3266 6.80509 40.3274ZM47.5637 4.69418C47.5637 4.69422 47.5617 4.69428 47.5581 4.69426C47.5619 4.69412 47.5637 4.69414 47.5637 4.69418ZM48.2503 0.0590195C48.6829 0.136958 49.3496 0.344619 49.8955 0.935935C50.7459 1.8572 51.5185 3.25162 52.1613 4.6844C52.8293 6.17331 53.45 7.91523 53.9319 9.68662C54.4122 11.4521 54.7721 13.3107 54.8862 15.0246C54.9954 16.6664 54.9034 18.4861 54.2039 19.9626C53.801 20.8133 53.1005 21.6087 52.4161 22.2795C51.6896 22.9915 50.7955 23.7397 49.8147 24.4881C47.85 25.9874 45.4072 27.586 42.953 29.026C40.5004 30.465 37.9775 31.7801 35.8444 32.6948C34.7827 33.15 33.7647 33.529 32.8707 33.769C32.111 33.973 30.986 34.2122 29.9627 33.9393C29.1113 33.7123 28.4074 33.2202 27.886 32.7798C27.3391 32.3177 26.8188 31.7612 26.3413 31.2002C25.5672 30.2907 24.7614 29.1941 24.0192 28.1841C23.8583 27.9651 23.7004 27.7501 23.5464 27.5421C22.9651 26.7566 22.4416 26.0706 21.9706 25.5159C21.9743 26.5896 22.0752 27.9033 22.1977 29.3739C22.2072 29.4874 22.2168 29.6018 22.2264 29.7169C22.3626 31.3426 22.5116 33.1208 22.4991 34.6489C22.4925 35.4714 22.4397 36.3181 22.2826 37.0914C22.1343 37.8209 21.8404 38.7619 21.1488 39.5164C20.2572 40.4891 18.8351 41.2487 17.5376 41.8223C16.1484 42.4363 14.5385 42.99 12.9756 43.4384C11.4115 43.8871 9.83735 44.2468 8.50833 44.4571C7.84641 44.5619 7.20715 44.6358 6.63977 44.6586C6.15079 44.6783 5.43842 44.6767 4.78892 44.4601C3.88129 44.1574 3.30182 43.4931 2.98319 43.0588C2.62567 42.5715 2.33337 42.0062 2.09227 41.4515C1.60629 40.3333 1.19464 38.9448 0.871165 37.5215C0.232197 34.7102 -0.163316 31.308 0.0654255 28.9062C0.162985 27.8818 0.788371 27.0623 1.14483 26.6306C1.59454 26.086 2.1812 25.5148 2.83383 24.9403C4.14833 23.7832 5.95213 22.4206 8.04332 20.9584C12.2398 18.024 17.7881 14.5531 23.3731 11.3055C28.9567 8.05867 34.6319 5.00293 39.0861 2.90982C41.3012 1.86887 43.2836 1.03293 44.8302 0.537366C45.59 0.293886 46.3541 0.0962492 47.0393 0.0272903C47.3806 -0.00705235 47.8061 -0.0210158 48.2503 0.0590195ZM22.1437 23.706C22.1438 23.7063 22.1419 23.7114 22.1375 23.7205C22.1414 23.7103 22.1436 23.7057 22.1437 23.706Z" fill="#EFEFE7"/>
<path fill-rule="evenodd" clip-rule="evenodd" d="M7.30122 29.0932C7.23859 30.5084 7.48426 32.6545 7.95046 34.6216C8.2024 35.6847 8.49168 36.5774 8.76763 37.1863C8.79036 37.2364 8.8121 37.2827 8.83278 37.3252C9.07863 37.3058 9.3814 37.2705 9.73697 37.2165C10.7085 37.0691 11.9301 36.8045 13.1838 36.4596C14.4389 36.1142 15.6704 35.7036 16.6727 35.2787C17.1737 35.0664 17.5876 34.8629 17.9053 34.6778C18.0626 34.586 18.1833 34.5063 18.272 34.4409C18.2778 34.4366 18.2834 34.4325 18.2888 34.4284C18.2941 34.4073 18.2998 34.3829 18.3058 34.3548C18.3614 34.0924 18.4006 33.6899 18.4054 33.1237C18.4147 32.0353 18.2996 30.7139 18.1725 29.2542C18.1663 29.1824 18.16 29.1102 18.1537 29.0377C18.027 27.5793 17.889 25.9455 17.9521 24.6027C17.9835 23.935 18.0692 23.1761 18.3116 22.4786C18.5494 21.7945 19.0669 20.8169 20.1932 20.3183C21.2361 19.8567 22.2431 20.0319 22.9693 20.3351C23.656 20.6218 24.2383 21.0753 24.6921 21.4879C25.6012 22.3145 26.513 23.4673 27.2993 24.4863C27.4592 24.6935 27.6153 24.8971 27.7681 25.0964C28.4229 25.9503 29.0172 26.7253 29.5896 27.3702C29.9355 27.7599 30.2182 28.0376 30.4412 28.2183C30.4771 28.2474 30.5087 28.2717 30.5359 28.2917C30.6223 28.2769 30.7478 28.2517 30.9187 28.2077C31.4343 28.0749 32.1272 27.8354 32.9705 27.4887C34.6477 26.7989 36.7188 25.7686 38.7899 24.6033C40.8597 23.4386 42.8712 22.1719 44.4372 21.0259C45.222 20.4516 45.8617 19.9317 46.3308 19.4908C46.5645 19.2711 46.7364 19.0891 46.8557 18.9463C46.9633 18.8173 46.999 18.7547 46.9994 18.7549C47.1117 18.5218 47.2488 17.8938 47.1692 16.7463C47.094 15.662 46.8454 14.3807 46.4739 13.0714C46.1043 11.7684 45.6317 10.5033 45.1435 9.45987C44.8863 8.91012 44.6465 8.46903 44.44 8.13319C44.3087 8.16772 44.1582 8.21047 43.9874 8.26297C42.8831 8.60233 41.3233 9.22387 39.4129 10.0848C35.6152 11.7963 30.6968 14.3329 25.8028 17.0621C20.91 19.7906 16.096 22.6813 12.5035 25.0905C10.7 26.2999 9.25316 27.3555 8.26799 28.1872C7.80323 28.5796 7.49018 28.8813 7.30122 29.0932ZM45.0946 8.0041C45.0945 8.00416 45.092 8.00429 45.0872 8.00432C45.0922 8.00405 45.0946 8.00404 45.0946 8.0041ZM18.2548 34.5387C18.2547 34.5386 18.2556 34.5365 18.2574 34.5326C18.2557 34.5368 18.2548 34.5387 18.2548 34.5387ZM9.07254 37.7341C9.07246 37.7347 9.06642 37.7283 9.05463 37.7129C9.06672 37.7258 9.07262 37.7335 9.07254 37.7341ZM45.7286 3.36292C46.1267 3.43169 46.7755 3.61889 47.3189 4.18345C48.1123 5.00767 48.8185 6.23737 49.3955 7.47066C49.998 8.75867 50.5565 10.2622 50.99 11.7903C51.4217 13.3121 51.7483 14.9244 51.8522 16.4214C51.951 17.8457 51.874 19.4858 51.2054 20.8395C50.8172 21.6253 50.1573 22.3365 49.5458 22.9112C48.8889 23.5286 48.0852 24.1732 47.2094 24.8141C45.4543 26.0985 43.2766 27.465 41.0919 28.6943C38.9085 29.9229 36.6601 31.0471 34.7558 31.8302C33.8082 32.2198 32.8949 32.5462 32.0891 32.7537C31.4122 32.928 30.3747 33.1434 29.4179 32.8987C28.6214 32.695 27.9655 32.2541 27.486 31.8656C26.9832 31.4582 26.5089 30.9708 26.0788 30.4863C25.3828 29.7021 24.6579 28.756 23.999 27.896C23.8569 27.7105 23.7178 27.529 23.5828 27.3541C23.2486 26.9209 22.9388 26.5272 22.6514 26.1786C22.6842 26.9007 22.7515 27.7247 22.8303 28.6314C22.8388 28.7295 22.8475 28.8285 22.8562 28.9284C22.9767 30.3069 23.1107 31.8408 23.0995 33.1635C23.0935 33.8775 23.0459 34.6304 22.898 35.3281C22.7586 35.9861 22.4755 36.8668 21.798 37.5757C20.9619 38.4504 19.6549 39.1132 18.5049 39.6007C17.2605 40.1282 15.8222 40.6023 14.4291 40.9856C13.0346 41.3693 11.6298 41.6772 10.4415 41.8576C9.84979 41.9474 9.27524 42.0113 8.76279 42.031C8.32638 42.0479 7.66722 42.0483 7.0571 41.8532C6.18819 41.5753 5.63012 40.9623 5.32565 40.5643C4.98619 40.1206 4.71314 39.612 4.49201 39.1241C4.04623 38.1405 3.67346 36.9308 3.38273 35.7041C2.81018 33.2882 2.44836 30.3394 2.65805 28.2279C2.71497 27.6547 2.93536 27.1962 3.10264 26.9067C3.28229 26.5958 3.4978 26.3153 3.70573 26.0739C4.12084 25.5918 4.65556 25.0935 5.23989 24.6002C6.41857 23.6052 8.02957 22.4387 9.88902 21.1917C13.6224 18.6881 18.5546 15.7293 23.5165 12.9623C28.4772 10.1959 33.5219 7.59076 37.4842 5.80509C39.4539 4.91741 41.2233 4.20148 42.6084 3.77582C43.2883 3.5669 43.9805 3.39453 44.6065 3.33411C44.918 3.30405 45.3127 3.29106 45.7286 3.36292ZM22.7501 24.0079C22.7501 24.0079 22.7494 24.0099 22.7479 24.0135C22.7493 24.0096 22.7501 24.0078 22.7501 24.0079Z" fill="#EFEFE7"/>
<path fill-rule="evenodd" clip-rule="evenodd" d="M49.5868 6.06433C50.4421 4.31813 52.551 3.59591 54.2972 4.45122L79.6232 16.856C81.3694 17.7113 82.0916 19.8203 81.2363 21.5665C80.381 23.3127 78.272 24.0349 76.5258 23.1796L51.1999 10.7748C49.4537 9.91948 48.7315 7.81054 49.5868 6.06433Z" fill="#EFEFE7"/>
<path fill-rule="evenodd" clip-rule="evenodd" d="M51.1137 18.3171C51.2514 16.3775 52.9353 14.9169 54.8749 15.0546L78.1335 16.7058C80.073 16.8435 81.5337 18.5275 81.396 20.467C81.2583 22.4065 79.5744 23.8672 77.6348 23.7295L54.3762 22.0782C52.4367 21.9405 50.976 20.2566 51.1137 18.3171Z" fill="#EFEFE7"/>
<path fill-rule="evenodd" clip-rule="evenodd" d="M50.3731 12.2294C50.7016 10.313 52.5216 9.02569 54.438 9.35423L68.1296 11.7014C70.046 12.0299 71.3333 13.8498 71.0048 15.7663C70.6762 17.6827 68.8563 18.97 66.9398 18.6415L53.2483 16.2944C51.3318 15.9658 50.0446 14.1459 50.3731 12.2294Z" fill="#EFEFE7"/>
<path fill-rule="evenodd" clip-rule="evenodd" d="M76.4473 17.1655C77.6677 16.4706 79.2203 16.8966 79.9151 18.117L93.3984 41.7967C94.0932 43.017 93.6672 44.5696 92.4469 45.2645C91.2265 45.9593 89.674 45.5334 88.9791 44.313L75.4959 20.6333C74.801 19.413 75.227 17.8604 76.4473 17.1655Z" fill="#EFEFE7"/>
<path fill-rule="evenodd" clip-rule="evenodd" d="M3.61019 34.5782C3.84105 33.193 5.15113 32.2573 6.53633 32.4881L45.7784 39.0285L66.3638 52.2191C67.5462 52.9767 67.8905 54.5495 67.1329 55.7318C66.3752 56.9142 64.8025 57.2586 63.6201 56.5009L43.9132 43.8732L5.70029 37.5044C4.31509 37.2735 3.37932 35.9634 3.61019 34.5782Z" fill="#EFEFE7"/>
<path fill-rule="evenodd" clip-rule="evenodd" d="M9.24785 41.8579C9.23913 40.4536 10.3704 39.3081 11.7747 39.2994L44.0476 39.0989C45.4519 39.0902 46.5974 40.2215 46.6061 41.6258C46.6148 43.0301 45.4835 44.1756 44.0792 44.1843L11.8063 44.3847C10.402 44.3934 9.25657 43.2621 9.24785 41.8579Z" fill="#EFEFE7"/>
</svg>
